<svg width="187" height="187" viewBox="0 0 187 187" fill="none" xmlns="http://www.w3.org/2000/svg">
<circle cx="93.5" cy="93.5" r="93.5" fill="#94DDFF"/>
<path d="M46.495 135.184H51.769C53.077 135.184 54.115 135.484 54.883 136.084C55.651 136.672 56.035 137.602 56.035 138.874C56.035 141.454 54.577 142.744 51.661 142.744H48.187V148H46.495V135.184ZM48.187 136.642V141.322H51.445C52.357 141.322 53.065 141.154 53.569 140.818C54.085 140.47 54.343 139.858 54.343 138.982C54.343 138.49 54.259 138.082 54.091 137.758C53.935 137.434 53.701 137.194 53.389 137.038C53.077 136.882 52.753 136.78 52.417 136.732C52.081 136.672 51.679 136.642 51.211 136.642H48.187ZM66.0509 146.776V147.964C65.7389 148.084 65.3909 148.144 65.0069 148.144C64.1309 148.144 63.6809 147.688 63.6569 146.776C62.7809 147.76 61.6589 148.252 60.2909 148.252C59.3789 148.252 58.6529 148.018 58.1129 147.55C57.5849 147.082 57.3209 146.44 57.3209 145.624C57.3209 143.968 58.4189 143.002 60.6149 142.726C60.7589 142.702 60.9689 142.678 61.2449 142.654C62.2889 142.534 62.9309 142.396 63.1709 142.24C63.4469 142.048 63.5849 141.718 63.5849 141.25C63.5849 140.23 62.8829 139.72 61.4789 139.72C60.7589 139.72 60.2129 139.87 59.8409 140.17C59.4689 140.458 59.2469 140.938 59.1749 141.61H57.6809C57.7049 140.614 58.0589 139.84 58.7429 139.288C59.4269 138.736 60.3689 138.46 61.5689 138.46C62.8769 138.46 63.8489 138.76 64.4849 139.36C64.6889 139.552 64.8389 139.804 64.9349 140.116C65.0309 140.428 65.0849 140.686 65.0969 140.89C65.1089 141.082 65.1149 141.376 65.1149 141.772C65.1149 142.228 65.1029 142.918 65.0789 143.842C65.0549 144.766 65.0429 145.456 65.0429 145.912C65.0429 146.248 65.0849 146.488 65.1689 146.632C65.2649 146.764 65.4329 146.83 65.6729 146.83C65.7689 146.83 65.8949 146.812 66.0509 146.776ZM63.5849 143.176C63.4769 143.26 63.3629 143.332 63.2429 143.392C63.1229 143.452 62.9669 143.5 62.7749 143.536C62.5949 143.572 62.4689 143.602 62.3969 143.626C62.3369 143.638 62.1809 143.662 61.9289 143.698C61.6769 143.722 61.5449 143.734 61.5329 143.734C61.1609 143.782 60.9149 143.818 60.7949 143.842C60.6869 143.854 60.4709 143.902 60.1469 143.986C59.8349 144.07 59.6129 144.166 59.4809 144.274C59.3489 144.382 59.2169 144.544 59.0849 144.76C58.9649 144.964 58.9049 145.21 58.9049 145.498C58.9049 145.978 59.0669 146.356 59.3909 146.632C59.7269 146.908 60.1829 147.046 60.7589 147.046C61.4909 147.046 62.1449 146.83 62.7209 146.398C63.2969 145.966 63.5849 145.456 63.5849 144.868V143.176ZM66.9708 141.394C67.0428 140.338 67.4448 139.582 68.1768 139.126C68.9088 138.67 69.8148 138.442 70.8948 138.442C71.9148 138.442 72.7488 138.652 73.3968 139.072C74.0568 139.492 74.3868 140.116 74.3868 140.944C74.3868 141.448 74.2368 141.88 73.9368 142.24C73.6488 142.6 73.3008 142.822 72.8928 142.906V142.942C73.3848 143.038 73.8048 143.284 74.1528 143.68C74.5128 144.064 74.6928 144.586 74.6928 145.246C74.6928 146.206 74.3148 146.956 73.5588 147.496C72.8028 148.024 71.8968 148.288 70.8408 148.288C69.6288 148.288 68.6628 148.012 67.9428 147.46C67.2348 146.896 66.8568 146.11 66.8088 145.102H68.3568C68.4048 145.75 68.6508 146.236 69.0948 146.56C69.5388 146.884 70.1148 147.046 70.8228 147.046C71.5308 147.046 72.0888 146.878 72.4968 146.542C72.9048 146.194 73.1088 145.774 73.1088 145.282C73.1088 144.274 72.4488 143.77 71.1288 143.77H69.8508V142.528H70.8768C71.4648 142.528 71.9388 142.408 72.2988 142.168C72.6588 141.916 72.8388 141.532 72.8388 141.016C72.8388 140.656 72.6588 140.344 72.2988 140.08C71.9508 139.816 71.4768 139.684 70.8768 139.684C70.2648 139.684 69.7308 139.822 69.2748 140.098C68.8308 140.374 68.5788 140.806 68.5188 141.394H66.9708ZM86.5548 148H85.0248V140.674H84.9708L82.2168 148H80.8128L78.0588 140.674H78.0048V148H76.4748V138.712H78.6708L81.4968 146.236H81.5328L84.3588 138.712H86.5548V148ZM96.7531 145.066C96.2851 147.226 94.9351 148.306 92.7031 148.306C91.3351 148.306 90.2611 147.88 89.4811 147.028C88.7131 146.176 88.3291 144.994 88.3291 143.482C88.3291 141.982 88.7251 140.77 89.5171 139.846C90.3211 138.91 91.3651 138.442 92.6491 138.442C94.0771 138.442 95.1331 138.928 95.8171 139.9C96.5131 140.86 96.8611 142.078 96.8611 143.554V143.77H89.8771L89.8591 143.878C89.8591 144.862 90.1171 145.636 90.6331 146.2C91.1491 146.764 91.8571 147.046 92.7571 147.046C93.4291 147.046 93.9571 146.89 94.3411 146.578C94.7371 146.266 95.0431 145.762 95.2591 145.066H96.7531ZM95.2771 142.528C95.2051 141.64 94.9351 140.95 94.4671 140.458C93.9991 139.954 93.3811 139.702 92.6131 139.702C91.8691 139.702 91.2511 139.954 90.7591 140.458C90.2671 140.962 89.9731 141.652 89.8771 142.528H95.2771ZM106.475 144.616C106.343 145.732 105.917 146.62 105.197 147.28C104.489 147.94 103.565 148.27 102.425 148.27C101.021 148.27 99.9351 147.838 99.1671 146.974C98.3991 146.098 98.0151 144.934 98.0151 143.482C98.0151 141.934 98.4171 140.71 99.2211 139.81C100.025 138.898 101.111 138.442 102.479 138.442C103.619 138.442 104.531 138.73 105.215 139.306C105.899 139.87 106.301 140.68 106.421 141.736H104.837C104.561 140.392 103.781 139.72 102.497 139.72C101.609 139.72 100.907 140.05 100.391 140.71C99.8751 141.358 99.6171 142.24 99.6171 143.356C99.6171 144.484 99.8631 145.372 100.355 146.02C100.847 146.668 101.525 146.992 102.389 146.992C103.085 146.992 103.649 146.788 104.081 146.38C104.525 145.972 104.807 145.384 104.927 144.616H106.475ZM115.261 140.062H111.931V148H110.401V140.062H107.071V138.712H115.261V140.062ZM118.445 148H116.483V138.712H118.013V146.29H118.049L122.225 138.712H124.187V148H122.657V140.422H122.621L118.445 148ZM133.595 140.062H130.265V148H128.735V140.062H125.405V138.712H133.595V140.062ZM141.801 143.032C142.353 143.536 142.629 144.226 142.629 145.102C142.629 145.978 142.359 146.68 141.819 147.208C141.291 147.736 140.577 148 139.677 148H134.763V138.712H136.293V142.258H139.605C140.517 142.258 141.249 142.516 141.801 143.032ZM139.119 143.572H136.293V146.65H139.119C139.743 146.65 140.217 146.518 140.541 146.254C140.877 145.978 141.045 145.594 141.045 145.102C141.045 144.082 140.403 143.572 139.119 143.572ZM53.1503 159.378C53.1863 158.058 53.5523 157.038 54.2483 156.318C54.9563 155.598 55.9403 155.238 57.2003 155.238C58.3283 155.238 59.2343 155.544 59.9183 156.156C60.6023 156.768 60.9443 157.572 60.9443 158.568C60.9443 159.168 60.7883 159.708 60.4763 160.188C60.1763 160.656 59.7503 161.004 59.1983 161.232C59.9183 161.4 60.4883 161.76 60.9083 162.312C61.3283 162.864 61.5383 163.53 61.5383 164.31C61.5503 165.486 61.1423 166.44 60.3143 167.172C59.4983 167.892 58.4363 168.252 57.1283 168.252C55.8323 168.252 54.7943 167.898 54.0143 167.19C53.2463 166.47 52.8623 165.504 52.8623 164.292V164.058H54.3743C54.4103 164.97 54.6683 165.672 55.1483 166.164C55.6283 166.656 56.2943 166.902 57.1463 166.902C57.9623 166.902 58.6223 166.674 59.1263 166.218C59.6423 165.75 59.9003 165.15 59.9003 164.418C59.9003 163.674 59.6423 163.08 59.1263 162.636C58.6223 162.192 57.9383 161.97 57.0743 161.97C56.8583 161.97 56.5823 161.994 56.2463 162.042V160.746C56.4143 160.758 56.5883 160.764 56.7683 160.764C57.5603 160.764 58.1843 160.578 58.6403 160.206C59.1083 159.822 59.3423 159.306 59.3423 158.658C59.3423 158.034 59.1383 157.53 58.7303 157.146C58.3343 156.762 57.8003 156.57 57.1283 156.57C56.3603 156.57 55.7603 156.816 55.3283 157.308C54.8963 157.788 54.6683 158.478 54.6443 159.378H53.1503ZM70.016 168H68.486V158.712H70.016V162.402H74.66V158.712H76.19V168H74.66V163.752H70.016V168ZM79.2259 159.774C80.0419 158.886 81.1519 158.442 82.5559 158.442C83.9599 158.442 85.0519 158.868 85.8319 159.72C86.6119 160.572 87.0019 161.766 87.0019 163.302C87.0019 164.874 86.6119 166.098 85.8319 166.974C85.0519 167.85 83.9539 168.288 82.5379 168.288C81.1219 168.288 80.0119 167.856 79.2079 166.992C78.4039 166.128 78.0019 164.928 78.0019 163.392C78.0019 161.868 78.4099 160.662 79.2259 159.774ZM84.6439 160.71C84.1279 160.05 83.4199 159.72 82.5199 159.72C81.6199 159.72 80.9059 160.05 80.3779 160.71C79.8499 161.37 79.5859 162.252 79.5859 163.356C79.5859 164.496 79.8439 165.39 80.3599 166.038C80.8879 166.674 81.6199 166.992 82.5559 166.992C83.4559 166.992 84.1579 166.668 84.6619 166.02C85.1779 165.372 85.4359 164.478 85.4359 163.338C85.4359 162.234 85.1719 161.358 84.6439 160.71ZM88.7879 168V158.712H93.0899C93.7019 158.712 94.2239 158.766 94.6559 158.874C95.0879 158.97 95.4659 159.192 95.7899 159.54C96.1139 159.888 96.2759 160.362 96.2759 160.962C96.2759 161.874 95.8199 162.54 94.9079 162.96V162.978C95.4599 163.086 95.8919 163.344 96.2039 163.752C96.5159 164.148 96.6719 164.652 96.6719 165.264C96.6719 166.056 96.4079 166.71 95.8799 167.226C95.3519 167.742 94.6739 168 93.8459 168H88.7879ZM92.9279 162.456C93.5639 162.456 94.0139 162.354 94.2779 162.15C94.5539 161.934 94.6919 161.622 94.6919 161.214C94.6919 160.806 94.5599 160.506 94.2959 160.314C94.0319 160.122 93.5759 160.026 92.9279 160.026H90.2819V162.456H92.9279ZM90.2819 163.752V166.686H93.5579C94.0379 166.686 94.4099 166.542 94.6739 166.254C94.9499 165.966 95.0879 165.594 95.0879 165.138C95.0879 164.214 94.4879 163.752 93.2879 163.752H90.2819ZM99.2298 159.774C100.046 158.886 101.156 158.442 102.56 158.442C103.964 158.442 105.056 158.868 105.836 159.72C106.616 160.572 107.006 161.766 107.006 163.302C107.006 164.874 106.616 166.098 105.836 166.974C105.056 167.85 103.958 168.288 102.542 168.288C101.126 168.288 100.016 167.856 99.2118 166.992C98.4078 166.128 98.0058 164.928 98.0058 163.392C98.0058 161.868 98.4138 160.662 99.2298 159.774ZM104.648 160.71C104.132 160.05 103.424 159.72 102.524 159.72C101.624 159.72 100.91 160.05 100.382 160.71C99.8538 161.37 99.5898 162.252 99.5898 163.356C99.5898 164.496 99.8478 165.39 100.364 166.038C100.892 166.674 101.624 166.992 102.56 166.992C103.46 166.992 104.162 166.668 104.666 166.02C105.182 165.372 105.44 164.478 105.44 163.338C105.44 162.234 105.176 161.358 104.648 160.71ZM116.82 164.616C116.688 165.732 116.262 166.62 115.542 167.28C114.834 167.94 113.91 168.27 112.77 168.27C111.366 168.27 110.28 167.838 109.512 166.974C108.744 166.098 108.36 164.934 108.36 163.482C108.36 161.934 108.762 160.71 109.566 159.81C110.37 158.898 111.456 158.442 112.824 158.442C113.964 158.442 114.876 158.73 115.56 159.306C116.244 159.87 116.646 160.68 116.766 161.736H115.182C114.906 160.392 114.126 159.72 112.842 159.72C111.954 159.72 111.252 160.05 110.736 160.71C110.22 161.358 109.962 162.24 109.962 163.356C109.962 164.484 110.208 165.372 110.7 166.02C111.192 166.668 111.87 166.992 112.734 166.992C113.43 166.992 113.994 166.788 114.426 166.38C114.87 165.972 115.152 165.384 115.272 164.616H116.82ZM125.606 160.062H122.276V168H120.746V160.062H117.416V158.712H125.606V160.062ZM128.79 168H126.828V158.712H128.358V166.29H128.394L132.57 158.712H134.532V168H133.002V160.422H132.966L128.79 168Z" fill="#2E2E2E"/>
<path d="M133.718 24C139.136 24 143.529 28.4143 143.529 33.8581V114.142C143.529 119.589 139.136 124 133.718 124H53.811C48.3932 124 44 119.586 44 114.142V33.8581C44 28.4111 48.3932 24 53.811 24H133.718ZM133.718 27.7451H53.811C50.4649 27.7451 47.7208 30.4927 47.7208 33.8581V48.1659H139.805V33.8581C139.805 30.4959 137.067 27.7451 133.721 27.7451H133.718ZM81.832 36.1843C82.8726 36.1843 83.6956 37.0079 83.6956 38.0504C83.6956 39.0928 82.8694 39.9229 81.832 39.9229C80.7945 39.9229 79.9748 39.096 79.9748 38.0504C79.9748 37.0047 80.7913 36.1843 81.832 36.1843ZM69.914 36.1843C70.9547 36.1843 71.7712 37.0047 71.7712 38.0504C71.7712 39.096 70.9515 39.9229 69.914 39.9229C68.8766 39.9229 68.0504 39.0928 68.0504 38.0504C68.0504 37.0079 68.8734 36.1843 69.914 36.1843ZM57.9865 36.1843C59.0271 36.1843 59.85 37.0079 59.85 38.0504C59.85 39.0928 59.0239 39.9229 57.9865 39.9229C56.949 39.9229 56.1229 39.0928 56.1229 38.0504C56.1229 37.0079 56.9458 36.1843 57.9865 36.1843ZM139.802 51.9077H47.7176V114.152C47.7176 117.517 50.4617 120.265 53.8078 120.265H133.714C137.061 120.265 139.798 117.514 139.798 114.152V53.0338L139.802 51.9077Z" fill="#150035"/>
<rect x="54.5804" y="57.7567" width="19.7738" height="12.8062" rx="1" fill="#39A1FF" stroke="#150035" stroke-width="2"/>
<rect x="54.5804" y="77.7886" width="19.7738" height="12.8062" rx="1" fill="#39A1FF" stroke="#150035" stroke-width="2"/>
<rect x="54.5804" y="97.8205" width="19.7738" height="12.8062" rx="1" fill="#39A1FF" stroke="#150035" stroke-width="2"/>
<path d="M82.3219 59.3696H104.967" stroke="#FF6E7A" stroke-width="3" stroke-linecap="round"/>
<path d="M82.3219 78.5305H104.967" stroke="#FF6E7A" stroke-width="3" stroke-linecap="round"/>
<path d="M82.3219 98.5624H104.967" stroke="#FF6E7A" stroke-width="3" stroke-linecap="round"/>
<path d="M82.3219 65.4662H127.176" stroke="#150035" stroke-width="2" stroke-linecap="round"/>
<path d="M82.3219 84.6272H127.176" stroke="#150035" stroke-width="2" stroke-linecap="round"/>
<path d="M82.3219 104.659H127.176" stroke="#150035" stroke-width="2" stroke-linecap="round"/>
<path d="M82.3219 70.692H127.176" stroke="#150035" stroke-width="2" stroke-linecap="round"/>
<path d="M82.3219 89.8529H127.176" stroke="#150035" stroke-width="2" stroke-linecap="round"/>
<path d="M82.3219 109.885H127.176" stroke="#150035" stroke-width="2" stroke-linecap="round"/>
</svg>